<?xml version="1.0" standalone="no"?>
<!DOCTYPE svg PUBLIC "-//W3C//DTD SVG 20010904//EN"
 "http://www.w3.org/TR/2001/REC-SVG-20010904/DTD/svg10.dtd">
<svg version="1.0" xmlns="http://www.w3.org/2000/svg"
 width="591.000000pt" height="591.000000pt" viewBox="0 0 591.000000 591.000000"
 preserveAspectRatio="xMidYMid meet">
<metadata>
Created by potrace 1.11, written by Peter Selinger 2001-2013
</metadata>
<g transform="translate(0.000000,591.000000) scale(0.100000,-0.100000)"
fill="#000000" stroke="none">
<path d="M783 5475 c-127 -55 -256 -195 -300 -326 -24 -71 -24 -179 0 -241 32
-83 128 -142 267 -164 79 -13 181 -44 218 -68 27 -17 45 -39 60 -74 19 -44 72
-249 85 -327 3 -16 12 -63 21 -102 9 -40 18 -87 21 -105 3 -18 12 -62 20 -98
8 -36 17 -76 19 -90 12 -67 71 -319 101 -432 81 -297 124 -394 255 -565 88
-114 270 -370 270 -378 0 -3 16 -30 36 -61 74 -115 115 -217 131 -321 26 -174
22 -352 -11 -510 -8 -37 -19 -104 -25 -148 -37 -283 -33 -445 13 -556 7 -15
-24 -16 -346 -13 -194 1 -550 3 -790 4 l-438 2 0 47 c-1 178 2 3292 3 3769 2
327 0 595 -4 598 -5 3 -232 8 -266 5 -9 -1 -12 -416 -13 -1718 0 -945 -2
-2001 -3 -2348 l-2 -630 110 -1 c61 -1 637 -4 1280 -8 644 -4 1393 -9 1665
-11 1059 -8 1630 -8 1637 -1 9 9 12 265 4 267 -5 1 -201 5 -476 9 -60 0 -76 3
-62 11 52 31 59 122 25 343 -27 174 -31 396 -8 441 26 53 78 69 220 72 109 2
173 -3 380 -32 70 -10 371 -71 520 -105 74 -17 144 -33 155 -35 11 -3 64 -14
118 -26 54 -11 108 -18 121 -15 29 7 46 50 35 91 -8 29 -15 32 -246 108 -565
187 -874 338 -1053 517 -58 57 -81 89 -100 135 -78 198 -145 301 -285 440
-254 252 -610 445 -996 540 -57 15 -113 28 -124 29 -77 12 -142 20 -155 19
-29 -2 -115 -15 -121 -19 -3 -1 -28 -6 -55 -9 -27 -4 -65 -10 -84 -15 -73 -18
-138 -24 -240 -25 -123 0 -140 7 -228 93 -95 92 -175 207 -241 346 -35 76 -45
105 -121 366 -105 356 -206 652 -286 834 -67 152 -146 248 -283 343 -25 18
-51 37 -57 42 -18 15 -145 78 -202 100 -61 24 -123 26 -169 6z m2332 -3858
c11 -3 40 -8 65 -12 25 -3 57 -8 71 -11 14 -2 56 -13 92 -24 84 -26 123 -70
203 -229 33 -64 61 -118 64 -121 3 -3 6 -9 7 -15 3 -16 96 -219 102 -225 3 -3
11 -14 17 -25 6 -11 28 -29 48 -39 20 -11 36 -23 36 -28 0 -8 -1439 -3 -1447
6 -3 2 2 15 11 28 17 26 32 112 41 233 3 44 8 91 10 105 2 14 7 49 11 79 9 85
42 178 75 216 30 34 73 52 149 61 18 3 36 6 38 9 5 5 381 -2 407 -8z"/>
</g>
</svg>
